<svg width="84" height="84" viewBox="0 0 84 84" fill="none" xmlns="http://www.w3.org/2000/svg">
<rect width="84" height="84" rx="15" fill="url(#paint0_linear_612_5)"/>
<path d="M70.9942 35.1673C70.62 34.8069 70.2181 34.4604 69.8023 34.1278L64.1196 29.3044C62.0411 27.831 59.5881 26.8696 56.9264 26.6096C56.7778 26.5951 56.6959 26.7732 56.8015 26.8788V26.8788L53.3604 23.4239C53.3539 23.4174 53.3452 23.4138 53.336 23.4138V23.4138C53.3274 23.4138 53.3191 23.4105 53.3127 23.4047C52.3574 22.5368 51.0724 22 49.6774 22C48.167 22 46.8035 22.6143 45.825 23.6079C44.9338 24.513 43.4328 25.0605 42.1652 24.98V24.98C42.0266 24.9661 41.8741 24.9661 41.7355 24.9661V24.9661C40.3007 24.9661 38.6028 24.365 37.5369 23.4046C36.578 22.5405 35.3088 22.0139 33.9184 22.0139C32.5233 22.0139 31.2521 22.537 30.2831 23.4186C30.2767 23.4244 30.2684 23.4276 30.2598 23.4276V23.4276C30.2506 23.4276 30.2419 23.4313 30.2354 23.4378L26.7943 26.8927V26.8927C26.8999 26.7871 26.818 26.609 26.6694 26.6236C24.0064 26.8847 21.5415 27.858 19.4762 29.3183L13.7935 34.1417C13.3777 34.4604 12.9758 34.8069 12.6016 35.1812C9.76024 37.9255 8 41.7648 8 46.02C8 54.3362 14.7637 61.1 23.0798 61.1C29.391 61.1 34.8126 57.1954 37.0513 51.672C37.7521 49.943 39.9253 48.8752 41.791 48.8752V48.8752V48.8752C43.6587 48.8752 45.8334 49.9408 46.5376 51.6706C48.7818 57.1838 54.1928 61.0861 60.5021 61.0861C68.8182 61.0861 75.5819 54.3223 75.5819 46.0061C75.5958 41.751 73.8356 37.9117 70.9942 35.1673ZM23.0798 56.3043C17.3972 56.3043 12.7956 51.7027 12.7956 46.02C12.7956 40.3372 17.3972 35.7356 23.0798 35.7356C28.7625 35.7356 33.364 40.3372 33.364 46.02C33.3779 51.6888 28.7625 56.3043 23.0798 56.3043ZM41.8048 44.6062C39.9614 44.6062 38.4645 43.1093 38.4645 41.2659C38.4645 39.4224 39.9614 37.9255 41.8048 37.9255C43.6482 37.9255 45.1451 39.4224 45.1451 41.2659C45.1451 43.1093 43.6482 44.6062 41.8048 44.6062ZM60.5298 56.3043C54.8472 56.3043 50.2456 51.7027 50.2456 46.02C50.2456 40.3372 54.8472 35.7356 60.5298 35.7356C66.2125 35.7356 70.8141 40.3372 70.8141 46.02C70.8141 51.6888 66.2125 56.3043 60.5298 56.3043Z" fill="white"/>
<defs>
<linearGradient id="paint0_linear_612_5" x1="42" y1="0" x2="42" y2="84" gradientUnits="userSpaceOnUse">
<stop stop-color="#12617F"/>
<stop offset="1" stop-color="#12617F" stop-opacity="0.47"/>
</linearGradient>
</defs>
</svg>
