<svg width="170" height="99" viewBox="0 0 170 99" fill="none" xmlns="http://www.w3.org/2000/svg">
<circle cx="37.9047" cy="60.1605" r="26.0812" fill="#ED9120"/>
<path d="M158.052 33.0362C157.113 32.132 156.105 31.2626 155.061 30.428L140.804 18.3264C135.309 14.4316 128.771 11.9626 121.677 11.4757L122.442 12.2408L113.783 3.54704H113.714C111.314 1.35622 108.08 0 104.568 0C98.5173 0 93.4054 3.92956 91.6667 9.38922C89.9279 8.27643 87.911 7.6157 85.7201 7.4766C85.3724 7.44183 84.9899 7.44183 84.6421 7.44183C82.1731 7.44183 79.878 8.1721 77.9306 9.38922C76.157 3.96434 71.0451 0.0347744 65.0291 0.0347744C61.5168 0.0347744 58.3175 1.35622 55.8833 3.58182H55.8137L47.1548 12.2755L47.9198 11.5105C40.8257 11.9973 34.2533 14.5011 28.7936 18.3611L14.5359 30.4628C13.4927 31.2626 12.4842 32.132 11.5453 33.0709C4.41641 39.9564 0 49.589 0 60.2649C0 81.1298 16.9702 98.1 37.8351 98.1C57.1004 98.1 73.0621 83.5989 75.3572 64.9247C78.1392 66.5244 81.3733 67.4285 84.7812 67.4285C88.2239 67.4285 91.4232 66.5244 94.2052 64.9247C96.5351 83.5641 112.462 98.0652 131.727 98.0652C152.592 98.0652 169.562 81.0951 169.562 60.2301C169.597 49.5542 165.181 39.9216 158.052 33.0362ZM37.8351 86.0679C23.5774 86.0679 12.0321 74.5226 12.0321 60.2649C12.0321 46.0072 23.5774 34.4619 37.8351 34.4619C52.0928 34.4619 63.6381 46.0072 63.6381 60.2649C63.6729 74.4878 52.0928 86.0679 37.8351 86.0679ZM84.816 56.7179C80.1909 56.7179 76.4352 52.9622 76.4352 48.3371C76.4352 43.7121 80.1909 39.9564 84.816 39.9564C89.4411 39.9564 93.1967 43.7121 93.1967 48.3371C93.1967 52.9622 89.4411 56.7179 84.816 56.7179ZM131.797 86.0679C117.539 86.0679 105.994 74.5226 105.994 60.2649C105.994 46.0072 117.539 34.4619 131.797 34.4619C146.055 34.4619 157.6 46.0072 157.6 60.2649C157.6 74.4878 146.055 86.0679 131.797 86.0679Z" fill="black"/>
<path d="M33.0663 58.0537L42.333 60.5035C42.6633 60.5909 42.9985 60.634 43.3319 60.634C43.9861 60.634 44.6322 60.4676 45.2154 60.1417C46.1059 59.6441 46.7411 58.8371 47.0039 57.8693C47.5424 55.8874 46.3321 53.8393 44.3061 53.3038L35.0396 50.8539C34.8124 50.7938 34.5702 50.8243 34.3663 50.938C34.1625 51.0518 34.0141 51.2399 33.9542 51.4603L32.4457 57.013C32.3228 57.466 32.5996 57.9303 33.0663 58.0537V58.0537ZM35.4338 52.7282L43.8415 54.9509C44.9382 55.2408 45.5916 56.3553 45.2983 57.4353C45.156 57.9591 44.8134 58.3952 44.3337 58.6632C43.864 58.9256 43.3186 58.9943 42.7978 58.8567L34.3739 56.6297L35.4338 52.7282Z" fill="black"/>
<path d="M35.8274 76.3134C36.04 76.3717 36.2561 76.4005 36.4711 76.4005C36.896 76.4005 37.3165 76.288 37.697 76.0677C38.2907 75.7241 38.7153 75.1627 38.8925 74.4871L39.1141 73.6418L40.2417 73.9507C42.1222 74.4656 44.0957 74.2064 45.7989 73.2204C47.5565 72.203 48.8125 70.5448 49.3353 68.5511C49.9319 66.2758 49.4814 63.9062 48.1335 62.0498C49.0534 61.1453 49.7075 60.0131 50.0434 58.7317C51.0286 54.975 48.914 51.1063 45.3134 50.0018L45.6189 48.8368C45.9762 47.4743 45.1916 46.0711 43.8699 45.7092C43.2374 45.5361 42.5734 45.6231 42.0004 45.9548C41.4066 46.2985 40.982 46.8598 40.8048 47.5354L40.5042 48.6814L38.7209 48.193L39.0256 47.0311C39.3829 45.6685 38.5984 44.2654 37.2766 43.9034C36.644 43.7302 35.98 43.8174 35.407 44.1491C34.8133 44.4928 34.3887 45.0542 34.2115 45.7298L33.911 46.8757L30.3071 45.8887C29.6744 45.7153 29.0105 45.8028 28.4375 46.1344C27.8437 46.478 27.4191 47.0394 27.2419 47.715C26.8847 49.0775 27.6692 50.4807 28.9909 50.8426L30.7107 51.3137L27.1113 65.0401L25.4073 64.5735C24.7747 64.4001 24.1107 64.4875 23.5377 64.8192C22.9439 65.1628 22.5194 65.7242 22.3422 66.3998C21.9849 67.7623 22.7695 69.1655 24.0912 69.5274L27.711 70.5188L27.4852 71.3801C27.1279 72.7426 27.9125 74.1458 29.2342 74.5077C29.8669 74.6811 30.5309 74.5937 31.1038 74.262C31.6975 73.9183 32.1221 73.3569 32.2993 72.6813L32.5209 71.8361L34.3043 72.3244L34.0785 73.1856C33.7211 74.5484 34.5057 75.9515 35.8274 76.3134V76.3134ZM32.133 69.9252C32.0578 69.9046 31.9809 69.8945 31.9043 69.8945C31.7533 69.8945 31.6035 69.9341 31.4703 70.011C31.2697 70.1271 31.1237 70.3188 31.0648 70.5435L30.6202 72.2386C30.5618 72.4613 30.4252 72.6444 30.2358 72.7541C30.067 72.8517 29.8736 72.8779 29.6915 72.8281C29.2844 72.7167 29.0477 72.2656 29.1639 71.8226L29.6085 70.1275C29.7295 69.6657 29.4571 69.1923 28.9977 69.0665L24.5484 67.8479C24.1414 67.7365 23.9047 67.2853 24.0209 66.8423C24.0794 66.6195 24.2159 66.4363 24.4054 66.3267C24.5741 66.2291 24.7674 66.203 24.9497 66.2526L27.499 66.9508C27.7223 67.012 27.9609 66.9811 28.1617 66.8651C28.3622 66.749 28.5083 66.5573 28.5672 66.3326L32.6083 50.9222C32.7294 50.4604 32.4568 49.987 31.9976 49.8612L29.4483 49.1629C29.0413 49.0515 28.8046 48.6004 28.9208 48.1574C28.9792 47.9347 29.1158 47.7515 29.3053 47.6419C29.474 47.5441 29.6673 47.518 29.8496 47.5678L34.2989 48.7864C34.5224 48.8476 34.7608 48.8169 34.9616 48.7007C35.1621 48.5846 35.3082 48.3929 35.3671 48.1682L35.8905 46.1724C35.9489 45.9497 36.0855 45.7666 36.2749 45.6569C36.4437 45.5593 36.6369 45.533 36.8192 45.5828C37.2263 45.6942 37.4628 46.1454 37.3466 46.5884L36.8233 48.5842C36.7022 49.046 36.9748 49.5194 37.434 49.6452L40.8922 50.5924C41.1157 50.6535 41.3542 50.6228 41.5549 50.5066C41.7554 50.3905 41.9015 50.1987 41.9604 49.9741L42.4838 47.9783C42.5422 47.7555 42.6788 47.5723 42.8682 47.4627C43.037 47.3651 43.2302 47.3389 43.4125 47.3887C43.8196 47.5002 44.0562 47.9513 43.94 48.3943L43.4167 50.3901C43.2956 50.8519 43.5682 51.3253 44.0274 51.4511L44.6544 51.6227C47.4623 52.3919 49.1267 55.3823 48.3645 58.289C48.0501 59.4877 47.3714 60.5133 46.4015 61.2549C46.2072 61.4035 46.0843 61.6274 46.0631 61.8716C46.0419 62.1158 46.1243 62.3576 46.29 62.5376C47.6679 64.0341 48.1786 66.1166 47.6563 68.1085C47.2522 69.6495 46.2844 70.9295 44.931 71.7129C43.6322 72.4648 42.1293 72.6631 40.6992 72.2715L38.7263 71.7311C38.5028 71.6698 38.2644 71.7009 38.0636 71.8169C37.863 71.933 37.717 72.1247 37.6581 72.3494L37.2135 74.0445C37.1551 74.2672 37.0185 74.4503 36.8291 74.56C36.6603 74.6577 36.467 74.6837 36.2848 74.634C35.8777 74.5226 35.6412 74.0715 35.7574 73.6285L36.2019 71.9334C36.323 71.4716 36.0505 70.9982 35.5912 70.8724L32.133 69.9252Z" fill="black"/>
<path d="M42.2496 70.7946C42.9685 70.7946 43.6787 70.6063 44.32 70.2374C45.3007 69.6733 46.0002 68.7579 46.29 67.6596C46.883 65.4122 45.5522 63.0903 43.3235 62.4837L32.7794 59.6137C32.5542 59.5524 32.314 59.5834 32.1117 59.6996C31.9097 59.8158 31.7625 60.0079 31.7032 60.2327L29.9928 66.7146C29.8708 67.177 30.1454 67.6509 30.6081 67.7769L41.1523 70.6469C41.515 70.7458 41.8835 70.7946 42.2496 70.7946V70.7946ZM33.1702 61.527L42.8627 64.1652C44.1699 64.521 44.9487 65.8898 44.5986 67.2165C44.4285 67.8613 44.019 68.3981 43.4456 68.7279C42.8851 69.0503 42.2343 69.1347 41.6132 68.9656L31.9046 66.323L33.1702 61.527Z" fill="black"/>
</svg>
