<svg width="416" height="241" viewBox="0 0 416 241" fill="none" xmlns="http://www.w3.org/2000/svg">
<path d="M387.76 81.4978C385.456 79.2813 382.982 77.15 380.423 75.104L345.443 45.4371C331.963 35.8891 315.924 29.8364 298.52 28.6429L300.397 30.5184L279.153 9.20597H278.982C273.096 3.83524 265.161 0.510498 256.544 0.510498C241.699 0.510498 229.158 10.1437 224.892 23.5279C220.626 20.7999 215.678 19.1802 210.303 18.8392C209.45 18.7539 208.512 18.7539 207.658 18.7539C201.601 18.7539 195.97 20.5442 191.193 23.5279C186.841 10.229 174.3 0.595746 159.54 0.595746C150.924 0.595746 143.074 3.83524 137.102 9.29122H136.932L115.688 30.6037L117.565 28.7282C100.161 29.9217 84.036 36.0596 70.6414 45.5224L35.662 75.1893C33.1025 77.15 30.6283 79.2813 28.3248 81.583C10.8351 98.4625 0 122.077 0 148.248C0 199.398 41.6341 241 92.8235 241C140.088 241 179.248 205.451 184.879 159.672C191.704 163.593 199.639 165.81 208 165.81C216.446 165.81 224.295 163.593 231.12 159.672C236.836 205.366 275.911 240.915 323.176 240.915C374.365 240.915 415.999 199.313 415.999 148.163C416.085 121.991 405.25 98.3772 387.76 81.4978ZM92.8235 211.504C57.8441 211.504 29.5192 183.201 29.5192 148.248C29.5192 113.296 57.8441 84.993 92.8235 84.993C127.803 84.993 156.128 113.296 156.128 148.248C156.213 183.115 127.803 211.504 92.8235 211.504ZM208.085 139.553C196.738 139.553 187.524 130.346 187.524 119.008C187.524 107.669 196.738 98.4625 208.085 98.4625C219.432 98.4625 228.646 107.669 228.646 119.008C228.646 130.346 219.432 139.553 208.085 139.553ZM323.347 211.504C288.367 211.504 260.042 183.201 260.042 148.248C260.042 113.296 288.367 84.993 323.347 84.993C358.326 84.993 386.651 113.296 386.651 148.248C386.651 183.115 358.326 211.504 323.347 211.504Z" fill="#12617F"/>
</svg>
